<svg xmlns="http://www.w3.org/2000/svg" width="1000.000000pt" height="1000.000000pt" class="icon"><g transform="translate(0.000000,1000.000000) scale(0.100000,-0.100000)"
fill="#dc6464" stroke="none">
<path d="M4667 7766 c-123 -51 -218 -138 -272 -251 -62 -129 -69 -250 -25
-415 11 -41 20 -78 20 -83 0 -4 -26 6 -57 22 -135 68 -294 91 -418 61 -166
-41 -327 -172 -465 -380 -24 -36 -44 -67 -46 -69 -2 -2 -25 10 -51 26 -216
131 -423 120 -582 -32 -136 -130 -171 -289 -107 -491 l24 -74 -57 -31 c-121
-69 -250 -180 -332 -289 -56 -73 -138 -228 -164 -309 -16 -48 -17 -132 -2
-147 10 -10 92 19 133 47 24 16 45 29 47 29 3 0 -1 -21 -9 -47 -50 -163 -68
-334 -54 -513 13 -168 36 -299 59 -330 31 -42 64 -31 216 68 77 50 141 89 143
87 2 -2 -10 -59 -27 -127 -54 -216 -65 -319 -66 -578 0 -230 7 -307 42 -500
14 -79 58 -190 74 -190 4 0 20 20 35 44 16 25 31 43 35 41 3 -3 9 -36 13 -74
15 -149 69 -300 153 -429 58 -88 245 -271 345 -336 166 -108 358 -187 600
-246 170 -42 200 -45 237 -26 17 9 31 23 31 30 0 18 -43 80 -97 140 -60 68
-144 196 -197 302 -24 49 -43 91 -41 92 2 2 48 -21 102 -52 175 -98 398 -193
698 -298 377 -132 453 -131 840 7 324 115 581 231 777 351 49 29 88 48 88 41
-1 -20 -122 -247 -172 -322 -26 -39 -70 -97 -99 -130 -54 -64 -93 -130 -85
-144 3 -5 26 -14 51 -20 43 -11 57 -8 218 40 411 122 608 219 781 380 172 160
261 332 306 582 12 71 31 139 49 177 l29 61 16 -70 c9 -38 16 -77 16 -87 0
-24 42 -95 54 -91 25 8 47 59 61 141 60 348 40 684 -59 977 l-43 132 40 101
c22 55 41 102 43 104 1 2 14 -4 28 -13 32 -22 62 -12 82 27 39 75 100 295 110
396 l6 70 54 -24 c40 -18 56 -21 58 -12 3 7 9 28 15 47 40 125 -52 441 -191
651 -57 87 -191 225 -278 286 -55 39 -69 53 -65 69 48 189 16 347 -95 462
-148 153 -343 184 -548 86 l-73 -34 -64 59 c-284 266 -644 322 -1159 181 l-69
-19 24 27 c38 41 148 109 240 146 46 19 161 54 254 78 94 23 174 45 178 49 13
12 -19 65 -59 98 -91 75 -403 101 -579 48 -154 -47 -295 -185 -382 -375 -20
-42 -37 -77 -38 -79 -9 -10 -116 57 -163 101 -65 62 -98 123 -111 207 -14 85
5 182 74 393 30 92 55 174 55 182 0 24 -86 18 -153 -9z m-51 -193 c-17 -55
-38 -180 -43 -258 -13 -201 69 -372 229 -476 51 -33 236 -114 243 -107 2 2 13
36 24 76 67 223 177 358 346 421 96 36 208 46 275 25 8 -3 -50 -39 -135 -82
-308 -158 -398 -249 -399 -402 0 -36 3 -82 7 -103 l8 -38 64 56 c74 65 137 93
298 134 297 76 546 60 757 -50 81 -42 230 -168 230 -194 0 -7 -21 -23 -47 -36
-69 -34 -172 -32 -278 3 -134 46 -212 60 -335 60 -140 0 -262 -21 -390 -69
-113 -42 -264 -117 -369 -182 l-76 -47 -65 53 c-75 61 -227 142 -320 171 -121
38 -182 47 -335 46 -178 -1 -292 -22 -486 -91 l-127 -44 -85 55 c-98 63 -96
55 -40 175 66 139 219 260 370 292 79 16 214 7 284 -20 76 -29 157 -82 317
-209 l134 -105 25 26 26 25 -65 114 c-85 146 -160 299 -184 368 -28 86 -25
200 8 272 37 80 153 201 134 141z m-1445 -928 c24 -9 61 -27 83 -41 l38 -26
-81 -33 c-144 -58 -242 -153 -276 -268 -9 -29 -18 -91 -22 -139 -3 -49 -9 -88
-14 -88 -4 0 -27 15 -51 33 -119 91 -141 288 -48 429 79 119 243 178 371 133z
m3881 -17 c30 -14 75 -43 98 -64 123 -111 132 -349 16 -469 -23 -25 -47 -45
-53 -45 -6 0 -15 15 -18 33 -20 94 -80 269 -108 315 -40 68 -102 114 -192 142
-38 13 -79 26 -90 30 -16 6 -12 11 29 35 78 46 115 56 192 52 48 -3 88 -12
126 -29z m-968 -158 c237 -60 430 -214 611 -485 208 -314 329 -695 336 -1055
2 -140 0 -143 -30 -45 -39 128 -64 179 -99 204 l-31 22 -21 -40 c-19 -38 -20
-58 -20 -371 0 -312 -1 -330 -18 -330 -14 0 -53 74 -172 328 -237 506 -306
639 -367 715 -46 55 -64 69 -102 81 -44 13 -46 12 -53 -8 -14 -47 -5 -115 51
-397 33 -162 60 -317 61 -344 4 -102 0 -165 -10 -165 -5 0 -10 4 -10 9 0 11
-356 653 -438 791 -54 91 -148 192 -196 210 -40 15 -73 -8 -83 -57 -4 -21 -7
-150 -7 -288 0 -255 4 -290 53 -487 10 -43 14 -43 -69 12 -101 68 -191 182
-244 308 -47 112 -59 184 -58 347 1 137 -7 206 -28 228 -15 16 -79 -37 -101
-83 -140 -292 -258 -582 -278 -680 -6 -30 -18 -120 -26 -199 -7 -79 -15 -145
-17 -146 -9 -10 -125 165 -173 260 -89 179 -99 228 -99 500 0 127 3 253 7 281
6 43 4 55 -12 75 -17 21 -21 22 -44 10 -39 -21 -73 -108 -228 -590 -79 -242
-146 -441 -150 -441 -11 0 -73 196 -93 290 -9 41 -21 132 -28 202 -14 146 -2
326 32 487 18 87 19 96 4 127 -19 39 -21 40 -52 18 -30 -21 -39 -41 -117 -258
-144 -403 -178 -567 -178 -856 -1 -102 2 -203 6 -225 l8 -40 -76 78 c-123 126
-199 256 -226 391 -11 53 -46 116 -65 116 -22 0 -81 -72 -114 -140 -19 -39
-39 -69 -45 -67 -32 11 -30 541 4 695 92 421 310 701 686 883 191 92 346 129
544 129 248 0 434 -70 614 -229 81 -72 105 -70 228 11 326 214 652 290 933
218z m693 -40 c190 -87 255 -315 139 -486 l-24 -35 -201 250 c-110 137 -201
252 -201 255 0 14 53 38 97 45 69 11 119 3 190 -29z m-3305 10 c29 -11 64 -29
78 -40 l25 -21 -45 -37 c-160 -134 -278 -256 -407 -421 -2 -3 -16 4 -31 15
-92 67 -98 269 -12 387 87 118 256 169 392 117z m3993 -545 c142 -141 203
-254 291 -533 2 -8 -4 -11 -21 -7 -14 3 -36 7 -50 10 -17 4 -31 -1 -45 -15
-18 -18 -20 -33 -20 -166 0 -94 -4 -143 -10 -139 -5 3 -10 18 -10 32 0 31 -34
106 -56 124 -12 10 -19 8 -39 -11 -33 -31 -39 -58 -70 -290 -14 -107 -29 -206
-34 -219 -7 -23 -12 -19 -81 70 -156 200 -181 254 -210 452 -22 151 -52 263
-116 425 -24 63 -44 128 -44 145 0 46 81 117 225 197 l120 67 45 -31 c25 -17
81 -67 125 -111z m-4579 31 c64 -30 123 -81 140 -122 12 -28 10 -43 -10 -125
-52 -203 -69 -333 -73 -558 l-4 -214 -275 -145 c-152 -79 -278 -142 -280 -139
-3 2 -12 58 -20 123 -31 231 -9 425 70 624 18 47 36 100 40 118 l6 32 -53 0
c-28 -1 -72 -5 -97 -10 -25 -4 -47 -7 -48 -5 -7 6 36 94 69 142 87 129 217
247 314 286 61 25 160 22 221 -7z m2831 -665 c34 -47 89 -131 122 -186 109
-182 357 -697 345 -716 -3 -5 -25 5 -50 22 -178 122 -370 140 -565 53 -47 -21
-64 -35 -79 -65 l-20 -38 35 -11 c31 -10 44 -8 117 21 255 99 468 7 607 -261
21 -41 49 -103 61 -138 23 -63 60 -105 89 -100 8 2 20 17 27 33 10 26 9 40 -9
93 l-20 63 22 27 c30 37 73 126 62 130 -5 2 -37 -4 -72 -12 l-64 -15 -27 29
c-38 42 -37 84 5 140 32 44 32 46 31 150 -1 81 -58 703 -67 730 -1 3 2 5 7 5
15 0 294 -570 320 -655 33 -105 50 -228 42 -313 -4 -39 -20 -132 -36 -206 -38
-177 -62 -310 -100 -559 -33 -213 -45 -260 -84 -327 -93 -157 -389 -330 -933
-544 -245 -97 -329 -114 -503 -108 -95 4 -157 12 -209 27 -117 33 -512 195
-676 276 -161 80 -367 212 -392 251 -35 54 -113 331 -162 578 -50 249 -112
707 -98 721 4 4 40 -23 81 -60 69 -62 75 -70 81 -117 5 -38 16 -61 46 -95 45
-52 45 -53 22 -115 -14 -41 -14 -53 -3 -93 7 -25 15 -46 18 -46 19 0 72 56 83
87 20 63 99 214 145 279 51 73 101 114 181 152 51 24 69 27 158 26 84 0 111
-5 169 -27 75 -30 166 -37 166 -13 0 7 -10 28 -23 47 -22 33 -26 35 -177 66
-85 17 -181 32 -214 32 l-59 1 7 63 c15 128 59 295 142 530 21 59 41 107 44
107 3 0 11 -31 18 -69 26 -154 118 -372 221 -524 51 -76 145 -192 191 -236 26
-25 79 -51 103 -51 23 0 27 76 10 185 -35 233 10 480 141 759 l51 110 17 -93
c29 -155 86 -302 152 -390 136 -181 366 -332 478 -314 39 6 40 7 35 39 -3 18
-26 80 -51 137 -25 57 -50 124 -55 148 -15 62 -36 468 -27 504 l8 30 26 -34
c15 -18 55 -72 89 -120z m-1849 -484 l97 -374 -24 -19 c-47 -36 -48 -36 -80
20 -25 45 -37 57 -68 65 -20 6 -39 9 -41 7 -2 -3 -6 -23 -9 -45 -5 -33 -1 -49
21 -81 43 -65 46 -82 26 -127 -10 -22 -22 -43 -27 -46 -11 -7 -50 222 -65 383
-14 152 11 414 54 575 6 22 13 35 15 28 2 -6 48 -180 101 -386z m-874 -149
c27 -140 30 -180 37 -463 12 -531 62 -821 197 -1153 28 -67 45 -119 39 -115
-42 24 -147 116 -216 188 -98 104 -163 225 -187 350 -20 104 -42 183 -54 190
-5 3 -31 -6 -59 -19 l-49 -25 -6 32 c-4 18 -9 135 -13 260 -7 268 3 380 53
575 48 188 68 226 151 284 38 26 70 47 73 48 3 0 18 -69 34 -152z m252 38 c50
-98 69 -185 104 -486 93 -792 219 -1222 504 -1720 36 -63 64 -115 62 -117 -3
-4 -241 76 -316 107 -182 73 -369 197 -479 317 -54 58 -151 192 -151 208 0 3
53 -34 118 -82 232 -172 318 -231 374 -259 51 -25 59 -26 87 -14 48 19 41 52
-24 130 -200 235 -307 512 -361 930 -20 160 -31 730 -16 850 16 126 43 235 54
218 5 -7 25 -44 44 -82z m3964 -38 c105 -162 190 -371 225 -550 9 -46 19 -145
22 -221 l6 -139 -41 21 c-23 12 -45 21 -50 21 -13 0 -40 -66 -57 -144 -27
-123 -95 -268 -171 -366 -20 -25 -97 -114 -172 -199 -75 -85 -146 -165 -158
-178 -17 -20 -23 -22 -32 -10 -9 11 10 91 88 361 117 407 124 466 56 469 -32
2 -32 -34 -6 467 11 212 20 405 20 429 0 63 8 47 30 -58 17 -82 61 -181 81
-181 4 0 18 18 33 40 21 33 31 69 49 180 11 77 22 140 23 140 1 0 26 -37 54
-82z m-374 -471 c1 -1 -22 -144 -52 -317 -29 -173 -54 -320 -54 -326 0 -24 28
-45 72 -52 l46 -7 -130 -340 c-113 -295 -158 -438 -144 -453 2 -2 25 0 51 3
54 9 80 27 348 249 103 86 187 154 187 151 0 -3 -14 -34 -31 -68 -109 -216
-272 -369 -523 -491 -125 -62 -431 -175 -442 -164 -3 3 22 48 56 99 173 267
307 607 396 1004 33 149 104 549 119 676 l7 56 46 -8 c25 -5 46 -10 48 -12z"/>
<path d="M4212 4289 c-115 -57 -185 -215 -185 -414 0 -83 5 -114 27 -180 15
-44 39 -99 53 -123 13 -24 23 -46 20 -48 -3 -3 -35 2 -71 11 -84 19 -107 19
-132 0 -19 -15 -18 -15 7 -38 88 -79 548 -78 627 0 34 34 14 56 -45 51 -24 -2
-43 -3 -43 -2 0 1 15 34 34 75 43 93 56 157 56 267 -1 291 -171 488 -348 401z
m179 -112 c21 -14 41 -41 53 -70 20 -47 20 -47 0 -94 -58 -140 -252 -116 -270
34 -14 112 122 194 217 130z"/>
<path d="M5693 4289 c-181 -89 -245 -450 -122 -691 21 -41 21 -41 -38 -57 -24
-7 -43 -15 -43 -20 0 -18 41 -43 91 -57 144 -38 341 -38 489 1 49 13 90 43 90
66 0 18 -72 21 -141 5 -39 -9 -75 -16 -79 -16 -4 0 10 33 31 73 51 97 70 173
70 282 2 298 -170 502 -348 414z m177 -111 c38 -26 70 -81 70 -118 0 -14 -8
-41 -19 -60 -67 -127 -250 -95 -267 47 -10 77 61 153 141 153 27 0 54 -8 75
-22z"/>
<path d="M5015 3666 c-18 -13 -18 -15 3 -66 28 -66 27 -72 -3 -108 -30 -36
-31 -52 -7 -82 l19 -23 57 72 58 73 -48 70 c-27 38 -51 71 -55 73 -3 3 -14 -2
-24 -9z"/>
<path d="M4774 3058 c8 -39 4 -36 144 -94 l112 -47 119 53 c102 44 121 57 130
81 9 26 8 29 -16 35 -18 5 -46 -3 -95 -27 -60 -29 -81 -34 -142 -34 -59 1 -82
6 -137 33 -37 18 -79 32 -94 32 -26 0 -27 -2 -21 -32z"/>
</g></svg>